<mxfile host="Electron" modified="2024-04-11T21:38:30.279Z" agent="Mozilla/5.0 (X11; Linux x86_64) AppleWebKit/537.36 (KHTML, like Gecko) draw.io/24.1.0 Chrome/120.0.6099.109 Electron/28.1.0 Safari/537.36" etag="zBhlfsKauJC2J1e-xtj5" version="24.1.0" type="device">
  <diagram name="Page-1" id="marXqOfrUUNENwYJ-Zf6">
    <mxGraphModel dx="1434" dy="770" grid="1" gridSize="10" guides="1" tooltips="1" connect="1" arrows="1" fold="1" page="1" pageScale="1" pageWidth="850" pageHeight="1100" math="0" shadow="0">
      <root>
        <mxCell id="0" />
        <mxCell id="1" parent="0" />
        <mxCell id="F4-VZfn_64KtDjMtTvla-1" value="id" style="rounded=0;whiteSpace=wrap;html=1;fillColor=#fff2cc;strokeColor=#d6b656;" vertex="1" parent="1">
          <mxGeometry x="80" y="90" width="90" height="30" as="geometry" />
        </mxCell>
        <mxCell id="F4-VZfn_64KtDjMtTvla-2" value="tag" style="rounded=0;whiteSpace=wrap;html=1;" vertex="1" parent="1">
          <mxGeometry x="170" y="90" width="90" height="30" as="geometry" />
        </mxCell>
        <mxCell id="F4-VZfn_64KtDjMtTvla-5" value="&lt;b&gt;&lt;font style=&quot;font-size: 20px;&quot;&gt;Intents&lt;/font&gt;&lt;/b&gt;" style="text;html=1;align=center;verticalAlign=middle;resizable=0;points=[];autosize=1;strokeColor=none;fillColor=none;" vertex="1" parent="1">
          <mxGeometry x="80" y="50" width="90" height="40" as="geometry" />
        </mxCell>
        <mxCell id="F4-VZfn_64KtDjMtTvla-6" value="id" style="rounded=0;whiteSpace=wrap;html=1;fillColor=#fff2cc;strokeColor=#d6b656;" vertex="1" parent="1">
          <mxGeometry x="80" y="200" width="90" height="30" as="geometry" />
        </mxCell>
        <mxCell id="F4-VZfn_64KtDjMtTvla-15" style="edgeStyle=orthogonalEdgeStyle;rounded=0;orthogonalLoop=1;jettySize=auto;html=1;" edge="1" parent="1" source="F4-VZfn_64KtDjMtTvla-7" target="F4-VZfn_64KtDjMtTvla-2">
          <mxGeometry relative="1" as="geometry" />
        </mxCell>
        <mxCell id="F4-VZfn_64KtDjMtTvla-7" value="tagID" style="rounded=0;whiteSpace=wrap;html=1;" vertex="1" parent="1">
          <mxGeometry x="170" y="200" width="90" height="30" as="geometry" />
        </mxCell>
        <mxCell id="F4-VZfn_64KtDjMtTvla-8" value="&lt;b&gt;&lt;font style=&quot;font-size: 20px;&quot;&gt;patterns&lt;/font&gt;&lt;/b&gt;" style="text;html=1;align=center;verticalAlign=middle;resizable=0;points=[];autosize=1;strokeColor=none;fillColor=none;" vertex="1" parent="1">
          <mxGeometry x="75" y="160" width="100" height="40" as="geometry" />
        </mxCell>
        <mxCell id="F4-VZfn_64KtDjMtTvla-9" value="pattern" style="rounded=0;whiteSpace=wrap;html=1;" vertex="1" parent="1">
          <mxGeometry x="260" y="200" width="90" height="30" as="geometry" />
        </mxCell>
        <mxCell id="F4-VZfn_64KtDjMtTvla-10" value="id" style="rounded=0;whiteSpace=wrap;html=1;fillColor=#fff2cc;strokeColor=#d6b656;" vertex="1" parent="1">
          <mxGeometry x="375" y="140" width="90" height="30" as="geometry" />
        </mxCell>
        <mxCell id="F4-VZfn_64KtDjMtTvla-14" style="edgeStyle=orthogonalEdgeStyle;rounded=0;orthogonalLoop=1;jettySize=auto;html=1;" edge="1" parent="1" source="F4-VZfn_64KtDjMtTvla-11" target="F4-VZfn_64KtDjMtTvla-2">
          <mxGeometry relative="1" as="geometry">
            <Array as="points">
              <mxPoint x="510" y="50" />
              <mxPoint x="215" y="50" />
            </Array>
          </mxGeometry>
        </mxCell>
        <mxCell id="F4-VZfn_64KtDjMtTvla-11" value="tagID" style="rounded=0;whiteSpace=wrap;html=1;" vertex="1" parent="1">
          <mxGeometry x="465" y="140" width="90" height="30" as="geometry" />
        </mxCell>
        <mxCell id="F4-VZfn_64KtDjMtTvla-12" value="&lt;b&gt;&lt;font style=&quot;font-size: 20px;&quot;&gt;responses&lt;/font&gt;&lt;/b&gt;" style="text;html=1;align=center;verticalAlign=middle;resizable=0;points=[];autosize=1;strokeColor=none;fillColor=none;" vertex="1" parent="1">
          <mxGeometry x="360" y="100" width="120" height="40" as="geometry" />
        </mxCell>
        <mxCell id="F4-VZfn_64KtDjMtTvla-13" value="response" style="rounded=0;whiteSpace=wrap;html=1;" vertex="1" parent="1">
          <mxGeometry x="555" y="140" width="90" height="30" as="geometry" />
        </mxCell>
      </root>
    </mxGraphModel>
  </diagram>
</mxfile>
